<svg xmlns="http://www.w3.org/2000/svg" xmlns:xlink="http://www.w3.org/1999/xlink" width="500" zoomAndPan="magnify" viewBox="0 0 375 374.999991" height="500" preserveAspectRatio="xMidYMid meet" version="1.0"><defs><g/><clipPath id="b89ff90f05"><path d="M 25.882812 24.519531 L 351 24.519531 L 351 349 L 25.882812 349 Z M 25.882812 24.519531 " clip-rule="nonzero"/></clipPath><clipPath id="b624652fc6"><path d="M 43.132812 24.519531 L 333.648438 24.519531 C 343.171875 24.519531 350.898438 32.242188 350.898438 41.769531 L 350.898438 332.140625 C 350.898438 341.667969 343.171875 349.390625 333.648438 349.390625 L 43.132812 349.390625 C 33.605469 349.390625 25.882812 341.667969 25.882812 332.140625 L 25.882812 41.769531 C 25.882812 32.242188 33.605469 24.519531 43.132812 24.519531 " clip-rule="nonzero"/></clipPath></defs><g clip-path="url(#b89ff90f05)"><g clip-path="url(#b624652fc6)"><path fill="#ffffff" d="M 25.882812 24.519531 L 350.210938 24.519531 L 350.210938 348.851562 L 25.882812 348.851562 Z M 25.882812 24.519531 " fill-opacity="1" fill-rule="nonzero"/></g></g><g fill="#d5f800" fill-opacity="0.851"><g transform="translate(251.300276, 170.152214)"><g><path d="M 33.234375 -40.875 C 39.347656 -40.875 44.535156 -38.738281 48.796875 -34.46875 C 53.066406 -30.207031 55.203125 -25.019531 55.203125 -18.90625 C 55.203125 -12.925781 53.066406 -7.800781 48.796875 -3.53125 C 44.535156 0.726562 39.347656 2.859375 33.234375 2.859375 C 27.253906 2.859375 22.128906 0.726562 17.859375 -3.53125 C 13.597656 -7.800781 11.46875 -12.925781 11.46875 -18.90625 C 11.46875 -25.019531 13.597656 -30.207031 17.859375 -34.46875 C 22.128906 -38.738281 27.253906 -40.875 33.234375 -40.875 Z M 33.234375 -40.875 "/></g></g></g><g fill="#000000" fill-opacity="1"><g transform="translate(241.521059, 163.304735)"><g><path d="M 33.234375 -40.875 C 39.347656 -40.875 44.535156 -38.738281 48.796875 -34.46875 C 53.066406 -30.207031 55.203125 -25.019531 55.203125 -18.90625 C 55.203125 -12.925781 53.066406 -7.800781 48.796875 -3.53125 C 44.535156 0.726562 39.347656 2.859375 33.234375 2.859375 C 27.253906 2.859375 22.128906 0.726562 17.859375 -3.53125 C 13.597656 -7.800781 11.46875 -12.925781 11.46875 -18.90625 C 11.46875 -25.019531 13.597656 -30.207031 17.859375 -34.46875 C 22.128906 -38.738281 27.253906 -40.875 33.234375 -40.875 Z M 33.234375 -40.875 "/></g></g></g><g fill="#d5f800" fill-opacity="0.851"><g transform="translate(117.758881, 302.181909)"><g><path d="M 12.296875 -169.125 L 72.78125 -169.125 C 89.039062 -169.125 102.296875 -164.785156 112.546875 -156.109375 C 122.796875 -147.429688 127.921875 -135.03125 127.921875 -118.90625 C 127.921875 -106.46875 124.8125 -96.046875 118.59375 -87.640625 C 112.375 -79.234375 103.9375 -73.320312 93.28125 -69.90625 L 151.5 0 L 102.5 0 L 50.84375 -66.828125 L 50.84375 0 L 12.296875 0 Z M 50.84375 -94.09375 L 55.34375 -94.09375 C 58.90625 -94.09375 61.914062 -94.160156 64.375 -94.296875 C 66.832031 -94.429688 69.628906 -94.910156 72.765625 -95.734375 C 75.910156 -96.554688 78.441406 -97.71875 80.359375 -99.21875 C 82.273438 -100.71875 83.914062 -102.898438 85.28125 -105.765625 C 86.644531 -108.640625 87.328125 -112.128906 87.328125 -116.234375 C 87.328125 -120.335938 86.644531 -123.820312 85.28125 -126.6875 C 83.914062 -129.5625 82.273438 -131.75 80.359375 -133.25 C 78.441406 -134.75 75.910156 -135.910156 72.765625 -136.734375 C 69.628906 -137.554688 66.832031 -138.035156 64.375 -138.171875 C 61.914062 -138.304688 58.90625 -138.375 55.34375 -138.375 L 50.84375 -138.375 Z M 50.84375 -94.09375 "/></g></g></g><g fill="#000000" fill-opacity="1"><g transform="translate(107.263086, 294.83267)"><g><path d="M 12.296875 -169.125 L 72.78125 -169.125 C 89.039062 -169.125 102.296875 -164.785156 112.546875 -156.109375 C 122.796875 -147.429688 127.921875 -135.03125 127.921875 -118.90625 C 127.921875 -106.46875 124.8125 -96.046875 118.59375 -87.640625 C 112.375 -79.234375 103.9375 -73.320312 93.28125 -69.90625 L 151.5 0 L 102.5 0 L 50.84375 -66.828125 L 50.84375 0 L 12.296875 0 Z M 50.84375 -94.09375 L 55.34375 -94.09375 C 58.90625 -94.09375 61.914062 -94.160156 64.375 -94.296875 C 66.832031 -94.429688 69.628906 -94.910156 72.765625 -95.734375 C 75.910156 -96.554688 78.441406 -97.71875 80.359375 -99.21875 C 82.273438 -100.71875 83.914062 -102.898438 85.28125 -105.765625 C 86.644531 -108.640625 87.328125 -112.128906 87.328125 -116.234375 C 87.328125 -120.335938 86.644531 -123.820312 85.28125 -126.6875 C 83.914062 -129.5625 82.273438 -131.75 80.359375 -133.25 C 78.441406 -134.75 75.910156 -135.910156 72.765625 -136.734375 C 69.628906 -137.554688 66.832031 -138.035156 64.375 -138.171875 C 61.914062 -138.304688 58.90625 -138.375 55.34375 -138.375 L 50.84375 -138.375 Z M 50.84375 -94.09375 "/></g></g></g></svg>